# xmcd
#
# Track frame offsets: 
#        150
#        11457
#        20111
#        29139
#        41330
#        53521
#        62787
#        71339
#        84347
#        93576
#        102269
#        114696
#        123826
#        134057
#        143004
#        152270
#        164155
#        177163
#        193606
#        207736
#        220744
#        233037
#        247541
#        258712
#        271414
#        281122
#        299096
#
# Disc length: 4162 seconds
#
# Revision: 0
# Processed by: cddbd v1.5.2PL0 Copyright (c) Steve Scherf et al.
# Submitted via: ExactAudioCopy v0.99pb5
#
DISCID=9410401b
DTITLE=Elvis Presley  - FTD 21 - Fun In Acapulco  
DYEAR=1900
DGENRE=
TTITLE0=Fun In Acapulco
TTITLE1=Vino, Dinero y Amor
TTITLE2=Mexico
TTITLE3=El Toro
TTITLE4=Marguerita
TTITLE5=The Bullfighter Was a Lady
TTITLE6=(There's) No Room to Rhumba in a Sports Car
TTITLE7=I Think I'm Gonna Like It Here
TTITLE8=Bossa Nova Baby
TTITLE9=You Can't Say No in Acapulco
TTITLE10=Guadalajara
TTITLE11=Love Me Tonight
TTITLE12=Slowly But Surely
TTITLE13=Mexico [Take 7]
TTITLE14=The Bullfighter Was A Lady [Remake Take 17]
TTITLE15=I Think I'm Gonna Like It Here [Remake Takes 18 and 19]
TTITLE16=Bossa Nova Baby [Takes 1 and 2]
TTITLE17=The Bullfighter Was a Lady [Takes 4, 5 and 6]
TTITLE18=Marguerita [Take 6]
TTITLE19=I Think I'm Gonna Like It Here [Take 1]
TTITLE20=Mexico [Takes 1 and 2]
TTITLE21=You Can't So No in Acapulco [Takes 1, 2, 3 and 4]
TTITLE22=Guadalajara [Take 2]
TTITLE23=Bossa Nova Baby [Take 3]
TTITLE24=Mexico [Take 6]
TTITLE25=I Think I'm Gonna Like It Here [Takes 11, 12 and 13]
TTITLE26=Guadalajera [Takes 3 &4]
EXTD=
EXTT0=
EXTT1=
EXTT2=
EXTT3=
EXTT4=
EXTT5=
EXTT6=
EXTT7=
EXTT8=
EXTT9=
EXTT10=
EXTT11=
EXTT12=
EXTT13=
EXTT14=
EXTT15=
EXTT16=
EXTT17=
EXTT18=
EXTT19=
EXTT20=
EXTT21=
EXTT22=
EXTT23=
EXTT24=
EXTT25=
EXTT26=
PLAYORDER=
